<svg id="Слой_1" data-name="Слой 1" xmlns="http://www.w3.org/2000/svg" viewBox="0 0 23.26 23.26"><defs><style>.cls-1{fill:#00b39e;}</style></defs><title>air-2</title><path class="cls-1" d="M18.2,25.11H19a1.05,1.05,0,0,0,1-1.23L17.73,9.76l5.94-5.94-1-1-1-1L15.75,7.78,1.82,5.54A1.22,1.22,0,0,0,.4,6.74v.69a1.49,1.49,0,0,0,.74,1.28l8.67,5-4.05,4-4.5-.57a.86.86,0,0,0-.86.86v1.54a.86.86,0,0,0,.52.79l2.5,1.07a1.18,1.18,0,0,1,.64.64l1.07,2.5a.88.88,0,0,0,.79.52H7.46a.86.86,0,0,0,.86-.86l-.56-4.49,4-4.06,5,8.57A1.67,1.67,0,0,0,18.2,25.11Z" transform="translate(-0.4 -1.84)"/></svg>