<?xml version="1.0" encoding="utf-8"?>
<!-- Generator: Adobe Illustrator 23.0.0, SVG Export Plug-In . SVG Version: 6.00 Build 0)  -->
<svg version="1.1" id="Слой_1" xmlns="http://www.w3.org/2000/svg" xmlns:xlink="http://www.w3.org/1999/xlink" x="0px" y="0px"
	 viewBox="0 0 16.8 16.8" style="enable-background:new 0 0 16.8 16.8;" xml:space="preserve">
<style type="text/css">
	.st0{fill:#00B39E;}
</style>
<title>bag</title>
<path class="st0" d="M16.2,1.7c0-0.3-0.1-0.6-0.3-0.8s-0.5-0.3-0.8-0.3c-0.8,0-1.9,0.8-3.3,2.2L2.9,0.6L1.4,2L8,6.6
	c-1,1-1.9,2-2.7,2.9L1.6,9.1l-1,1L3.5,12c-0.4,0.8-0.4,1.1-0.2,1.4c0.1,0.1,0.3,0.2,0.4,0.2c0.2,0,0.5-0.1,1-0.3l1.9,2.9l1-1
	l-0.4-3.7c0.9-0.8,1.9-1.7,2.9-2.7l4.6,6.6l1.5-1.5L14,5C15.4,3.5,16.2,2.5,16.2,1.7z M2.7,1.9l0.4-0.4l8,2c-0.5,0.5-1,1-1.6,1.5
	L8.8,5.8C8.7,5.8,8.7,5.9,8.6,6C8.6,6,2.7,1.9,2.7,1.9z M2,10l2.7,0.3l-0.1,0.1C4.3,10.7,4.1,11,4,11.3C4,11.3,2,10,2,10z M4.3,12.4
	l1.3-1.8c0.8-1,1.8-2.2,3.2-3.5l3.5-3.5c1.3-1.3,2.4-2.2,3-2.2c0.1,0,0.1,0,0.2,0.1s0.1,0.1,0.1,0.2c0,0.6-0.9,1.6-2.2,2.9l-0.8,0.8
	L12,6c-0.7,0.4-1.1,0.9-1.6,1.3c-2,2-3.6,3.4-4.8,4.3l-0.8,0.5c-0.3,0.2-0.5,0.3-0.7,0.4C4.2,12.6,4.2,12.5,4.3,12.4z M5.4,12.8
	c0.2-0.1,0.4-0.3,0.6-0.4l0.4-0.3l0.3,2.7L5.4,12.8z M15.3,13.6L14.9,14l-4.1-5.9L13,5.9l0.3-0.3C13.3,5.6,15.3,13.6,15.3,13.6z"/>
</svg>
