<svg xmlns="http://www.w3.org/2000/svg" width="16" height="16" viewBox="0 0 16 16"><path d="M14.063 4.014h-1.488c-.084-1.32-.28-2.19-.87-2.92-.73-.898-2.077-1.262-3.228-.87-.898.31-2.386 1.32-2.386 4.632 0 2.583-.73 3.986-2.133 4.183-1.46.196-2.358-.478-2.723-2.078a.506.506 0 0 0-.59-.365.506.506 0 0 0-.364.59c.42 1.88 1.544 2.891 3.2 2.891.196 0 .393-.028.617-.056 1.348-.196 2.976-1.235 2.976-5.137 0-1.993.617-3.312 1.712-3.705.87-.309 1.74.056 2.133.561.45.562.59 1.207.674 2.33H9.684a1.91 1.91 0 0 0-1.909 1.91v6.091a3.822 3.822 0 0 0 3.818 3.818h.225a3.822 3.822 0 0 0 3.817-3.818V5.642a1.565 1.565 0 0 0-1.572-1.628zm.618 1.628v2.021h-2.077V5.025h1.431c.365-.029.646.252.646.617zm-4.969-.646h1.937v2.639H8.786v-1.74c0-.477.421-.899.926-.899zm2.134 9.853h-.225a2.827 2.827 0 0 1-2.835-2.835V8.646h5.895v3.368a2.845 2.845 0 0 1-2.835 2.835z" fill="#00b39e"/></svg>