<?xml version="1.0" encoding="utf-8"?>
<!-- Generator: Adobe Illustrator 23.0.0, SVG Export Plug-In . SVG Version: 6.00 Build 0)  -->
<svg version="1.1" id="pw-trash" xmlns="http://www.w3.org/2000/svg" xmlns:xlink="http://www.w3.org/1999/xlink" x="0px" y="0px"
	 viewBox="0 0 75.1 100" style="enable-background:new 0 0 75.1 100;" xml:space="preserve">
<style type="text/css">
	.st0{fill:#00B39E;}
</style>
<path class="st0" d="M71.4,13.6H53.5c-1-6.6-6.4-12.9-13.3-12.9H34c-6.9,0-12.2,6.6-13.3,12.9H2.9c-1.6,0-2.9,1.3-2.9,2.9
	c0,0,0,0,0,0c0,1.7,1.2,2.9,2.9,2.9h2.6l3.8,74.3c0.2,2.9,2.6,5.2,5.5,5.2h44.8c2.9,0,5.3-2.3,5.5-5.2L69,19.5h2.6
	c1.6,0,2.9-1.3,2.9-2.9c0,0,0,0,0-0.1C74.5,14.8,72.9,13.6,71.4,13.6L71.4,13.6z M34.1,6.4h6.2c3.5,0,6.6,3.6,7.4,7.2H26.6
	C27.6,9.8,30.7,6.4,34.1,6.4z M59.3,93.1H15l-3.6-73.6h51.7L59.3,93.1L59.3,93.1z"/>
<path class="st0" d="M48.3,84.1c1.2,0,2.1-0.9,2.1-1.9l2.6-52.4c0-1.2-0.9-2.1-1.9-2.1c-1.2,0-2.1,0.9-2.1,1.9l-2.6,52.4
	C46.2,83.1,47.1,84.1,48.3,84.1z M37.2,84.1c1.1,0,2-0.8,2.1-1.9c0,0,0-0.1,0-0.1V29.8c0-1.1-0.8-2-1.9-2.1c0,0-0.1,0-0.1,0
	c-1.1,0-2,0.8-2.1,1.9c0,0,0,0.1,0,0.1v52.4C35.2,83.3,36,84.1,37.2,84.1L37.2,84.1z M25.9,84.1c1.1,0,2.1-0.9,2.1-2.1l-2.6-52.4
	c0-1.2-1-2.1-2.1-1.9c-1.2,0-2.1,1-1.9,2.1L24,82.2C24,83.3,24.8,84.1,25.9,84.1z"/>
</svg>
