<?xml version="1.0" encoding="utf-8"?>
<!-- Generator: Adobe Illustrator 23.0.0, SVG Export Plug-In . SVG Version: 6.00 Build 0)  -->
<svg version="1.1" id="pw-trash" xmlns="http://www.w3.org/2000/svg" xmlns:xlink="http://www.w3.org/1999/xlink" x="0px" y="0px"
	 viewBox="0 0 500 500" style="enable-background:new 0 0 500 500;" xml:space="preserve">
<style type="text/css">
	.st0{fill:#00B39E;}
</style>
<path class="st0" d="M427.2,68.1h-89.7c-5.2-32.8-31.9-64.7-66.4-64.7h-31c-34.5,0-61.2,32.8-66.4,64.7H84.9
	c-8-0.1-14.6,6.4-14.7,14.4c0,0.1,0,0.1,0,0.2c0,8.6,6,14.7,14.7,14.7h12.9l19,371.5c0.9,14.6,13,25.9,27.6,25.8h224.1
	c14.6,0.1,26.7-11.3,27.6-25.8l19-371.6H428c8,0.1,14.6-6.4,14.7-14.4c0-0.1,0-0.2,0-0.3C442.7,74.1,434.9,68.1,427.2,68.1
	L427.2,68.1z M240.9,31.9h31c17.3,0,32.8,18.1,37.1,36.2H203C208.2,49.1,223.7,31.9,240.9,31.9z M366.8,465.5H145.3L127.2,97.4
	h258.6L366.8,465.5L366.8,465.5z"/>
<path class="st0" d="M311.6,420.7c6.1,0,10.3-4.3,10.3-9.5l12.9-262.1c0-6-4.3-10.3-9.5-10.3c-6,0-10.3,4.3-10.3,9.5l-12.9,262.1
	C301.3,415.5,305.6,420.7,311.6,420.7L311.6,420.7z M256.5,420.7c5.5,0.2,10.1-4.1,10.3-9.6c0-0.2,0-0.5,0-0.7V149.1
	c0.2-5.5-4.1-10.1-9.6-10.3c-0.2,0-0.5,0-0.7,0c-5.5-0.2-10.1,4.1-10.3,9.6c0,0.2,0,0.5,0,0.7v262.1
	C246.1,416.4,250.4,420.7,256.5,420.7L256.5,420.7z M199.6,420.7c5.7-0.1,10.3-4.7,10.3-10.3L197,148.3c0-6-5.2-10.3-10.3-9.5
	c-6.1,0-10.4,5.2-9.5,10.3l12.9,262.1C190.1,416.4,194.4,420.7,199.6,420.7L199.6,420.7z"/>
</svg>
