<?xml version="1.0" encoding="utf-8"?>
<!-- Generator: Adobe Illustrator 23.0.0, SVG Export Plug-In . SVG Version: 6.00 Build 0)  -->
<svg version="1.1" id="pw-signout" xmlns="http://www.w3.org/2000/svg" xmlns:xlink="http://www.w3.org/1999/xlink" x="0px" y="0px"
	 viewBox="0 0 500 500" style="enable-background:new 0 0 500 500;" xml:space="preserve">
<style type="text/css">
	.st0{fill-rule:evenodd;clip-rule:evenodd;fill:#FFFFFF;}
</style>
<g>
	<path class="st0" d="M292.7,375c-3.1,0-6-1.2-8.1-3.4c-4.5-4.6-4.5-11.9,0-16.6l102.6-105L284.7,145c-4.5-4.6-4.5-12,0-16.6
		c4.3-4.5,11.4-4.6,15.9-0.3c0.1,0.1,0.2,0.2,0.3,0.3L419.6,250L300.8,371.6C298.7,373.8,295.8,375,292.7,375"/>
	<path class="st0" d="M75.4,500c-24.4,0-44.2-19.9-44.2-44.3V44.3C31.3,19.9,51.1,0,75.4,0h300.6c24.3,0,44.2,19.9,44.2,44.3v110.2
		h-30.7V44.3c0-7.5-6-13.5-13.5-13.5H75.4c-7.5,0-13.5,6.1-13.5,13.5v411.4c0,7.5,6.1,13.5,13.5,13.5h300.6
		c7.4,0,13.5-6.1,13.5-13.5v-95h30.7v95c0,24.4-19.8,44.3-44.2,44.3H75.4L75.4,500z"/>
</g>
</svg>
