<svg viewBox="0 0 16 16" id="pw-signout" xmlns="http://www.w3.org/2000/svg" width="100%" height="100%"><g fill-rule="evenodd"><path d="M9.367 12a.362.362 0 0 1-.26-.11.382.382 0 0 1 0-.53l3.282-3.361-3.28-3.358a.382.382 0 0 1 0-.531.36.36 0 0 1 .519 0l3.798 3.889-3.8 3.891a.361.361 0 0 1-.26.11"></path><path d="M2.414 16C1.634 16 1 15.364 1 14.583V1.417C1 .636 1.634 0 2.414 0h9.62c.779 0 1.413.636 1.413 1.417v3.527h-.982V1.417a.433.433 0 0 0-.432-.433h-9.62a.433.433 0 0 0-.432.433v13.166c0 .239.194.433.433.433h9.62a.433.433 0 0 0 .431-.433v-3.039h.982v3.039c0 .781-.634 1.417-1.414 1.417h-9.62z"></path></g></svg>