<?xml version="1.0" encoding="utf-8"?>
<!-- Generator: Adobe Illustrator 23.0.0, SVG Export Plug-In . SVG Version: 6.00 Build 0)  -->
<svg version="1.1" id="pw-filterOptions" xmlns="http://www.w3.org/2000/svg" xmlns:xlink="http://www.w3.org/1999/xlink" x="0px"
	 y="0px" viewBox="0 0 30 30" style="enable-background:new 0 0 30 30;" xml:space="preserve">
<style type="text/css">
	.st0{fill:#FFFFFF;}
</style>
<title>Debenhams/[icons]/Icon/filter-black</title>
<g>
	<path class="st0" d="M12.6,3.8c-0.4-1.9-2.1-3.3-4.1-3.3S4.7,1.9,4.3,3.8H0v1.9h4.3c0.4,1.9,2.1,3.3,4.1,3.3s3.7-1.4,4.1-3.3H30
		V3.8H12.6z M8.4,7.9c-1.8,0-3.3-1.5-3.3-3.3s1.5-3.3,3.3-3.3s3.3,1.5,3.3,3.3S10.2,7.9,8.4,7.9z"/>
	<path class="st0" d="M21.6,9.8c-2,0-3.7,1.4-4.1,3.3H0V15h17.4c0.4,1.9,2.1,3.3,4.1,3.3s3.7-1.4,4.1-3.3H30v-1.9h-4.3
		C25.3,11.2,23.6,9.8,21.6,9.8z M21.6,17.3c-1.5,0-2.7-1-3.1-2.3h0.1c-0.1-0.3-0.2-0.6-0.2-0.9s0.1-0.6,0.2-0.9h-0.1
		c0.4-1.3,1.6-2.3,3.1-2.3s2.7,1,3.1,2.3h-0.1c0.1,0.3,0.2,0.6,0.2,0.9s-0.1,0.6-0.2,0.9h0.1C24.3,16.3,23,17.3,21.6,17.3z"/>
	<path class="st0" d="M8.4,19.2c-2,0-3.7,1.4-4.1,3.3H0v1.9h4.3c0.4,1.9,2.1,3.3,4.1,3.3s3.7-1.4,4.1-3.3H30v-1.9H12.6
		C12.1,20.6,10.5,19.2,8.4,19.2z M8.4,26.7c-1.5,0-2.7-1-3.1-2.3h0.1c-0.1-0.3-0.2-0.6-0.2-0.9s0.1-0.6,0.2-0.9H5.3
		c0.4-1.3,1.6-2.3,3.1-2.3s2.7,1,3.1,2.3h-0.1c0.1,0.3,0.2,0.6,0.2,0.9s-0.1,0.6-0.2,0.9h0.1C11.1,25.7,9.9,26.7,8.4,26.7z"/>
</g>
</svg>
