<svg xmlns="http://www.w3.org/2000/svg" xmlns:xlink="http://www.w3.org/1999/xlink" width="16px" height="16px" viewBox="0 0 16 16" version="1.1">
    <g id="-Symbols" stroke="none" stroke-width="1" fill="none" fill-rule="evenodd">
        <g stroke="#00B39E">
            <path d="M6.91483132,8.07608263 L8.68075676,8.92859836 C9.17811769,9.16870364 9.38666461,9.76653813 9.14655933,10.2638991 C9.01407306,10.5383349 8.76367809,10.7373818 8.46643153,10.8045542 C6.00991012,11.3596839 4.16661272,11.7570899 2.93466792,11.9970989 C2.31254445,12.1183018 1.844097,12.1998338 1.52543955,12.2420558 C1.35341234,12.2648494 1.22052034,12.2769361 1.11886903,12.2777348 C1.04321203,12.2783292 0.97825139,12.2734416 0.911391691,12.2572996 C0.692993524,12.2045718 0.5,12.061756 0.5,11.75 C0.5,11.5631843 0.739354532,9.398375 1.25671074,4.87850942 C1.31951673,4.3298075 1.81524181,3.93591097 2.36394375,3.9987169 C2.5963438,4.02531805 2.8120647,4.13254843 2.97357907,4.30175396 L4.45066722,5.84917964 C6.45889915,3.2192328 8.55394169,2.07588639 10.7230581,2.50970966 C12.941995,2.95349706 14.3014007,4.70727839 14.9898444,7.30053503 C15.2188933,8.16332558 15.3615312,9.0782136 15.4367368,10.0201267 C15.4873052,10.6534704 15.5,11.1280495 15.5,11.75 C15.5,11.9531873 15.4868861,12.0561903 15.3851953,12.1961861 C15.2191849,12.4247296 14.9174287,12.4711236 14.691886,12.330765 C14.6062495,12.2774721 14.5547148,12.2185311 14.5045812,12.1430028 C14.4339113,12.0365355 14.3891743,11.9393445 14.2143636,11.5370445 C13.8224088,10.6350205 13.561026,10.0960022 13.1727972,9.46792807 C12.2044415,7.90132849 11.0807731,7.00744704 9.73502536,6.99977571 C8.56748754,6.96479311 7.63841068,7.31934362 6.91483132,8.07608263 Z" id="Path-2"/>
        </g>
    </g>
</svg>