<svg xmlns="http://www.w3.org/2000/svg" width="16" height="16" viewBox="0 0 16 16"><path d="M6.16 10.482c.349 0 .577.003.733.015v-.014h2.98a1.972 1.972 0 0 1 1.822-1.293h.059a1.971 1.971 0 0 1 1.822 1.292h1.32l-.075-2.105c0-.565-.413-.933-1.027-.933-.911 0-1.218-.72-1.442-1.246-.283-.667-.467-1.014-1.24-1.014H9.839l-.122-2.166H1.15l-.122 7.464h1.429l.012-.033a1.971 1.971 0 0 1 1.812-1.26h.075a1.97 1.97 0 0 1 1.804 1.293zm-2.802.605a.954.954 0 1 0 1.901.005l-.005-.043a.953.953 0 0 0-.914-.84h-.003l-.002-.001h-.04a.955.955 0 0 0-.933.842l-.004.037zm7.415.002a.955.955 0 1 0 1.903.004l-.005-.043a.956.956 0 0 0-.919-.842h-.06a.955.955 0 0 0-.915.842l-.004.04zm.951 2.044A1.975 1.975 0 0 1 9.781 11.5H6.25a1.975 1.975 0 0 1-1.943 1.633A1.975 1.975 0 0 1 2.366 11.5H.626a.622.622 0 0 1-.622-.692l.143-8.115A.878.878 0 0 1 1.01 2h8.96a.76.76 0 0 1 .605.297c.126.162.18.362.154.562l.074 1.306h.31c1.482 0 1.9.983 2.178 1.634.226.533.302.626.504.626 1.185 0 2.046.813 2.046 1.933l.089 2.465-.022.078a.83.83 0 0 1-.796.6h-1.444a1.975 1.975 0 0 1-1.943 1.632z" fill="#00B39E" fill-rule="evenodd"/></svg>