<svg viewBox="0 0 16 14" id="pw-heart" width="100%" height="100%" xmlns="http://www.w3.org/2000/svg"><path d="M1.047 4.845c-.015 2.137 1.686 3.498 3.187 4.699.297.238.586.469.85.696l.081.07c.937.807 1.828 1.573 2.788 2.165.142-.113.332-.26.592-.463a80.325 80.325 0 0 0 2.22-1.77c.248-.208.525-.424.817-.651 1.51-1.174 3.388-2.635 3.374-4.777-.015-1.984-.918-3.35-2.416-3.655-1.315-.266-3.143.415-4.062 2.538a.523.523 0 1 1-.96.001C6.574 1.53 4.818.835 3.495 1.103c-1.172.24-2.43 1.348-2.448 3.743zm7.465 8.418v.001zm0 .001zm0 .001zm-.503.375a.523.523 0 0 1-.258-.068c-1.17-.663-2.19-1.54-3.269-2.469l-.08-.07c-.256-.22-.535-.442-.822-.672C1.977 9.078-.019 7.481 0 4.838.022 1.818 1.712.398 3.285.077c1.526-.313 3.47.309 4.718 2.298C9.11.67 10.952-.232 12.748.133c1.56.317 3.233 1.711 3.255 4.674.017 2.658-2.176 4.364-3.778 5.61-.281.22-.55.427-.788.628-.777.65-1.628 1.31-2.25 1.794-.335.26-.68.529-.776.613a.52.52 0 0 1-.402.188z" fill-rule="evenodd"></path></svg>