<svg viewBox="0 0 16 16" id="pw-location" width="100%" height="100%" xmlns="http://www.w3.org/2000/svg"><g fill-rule="evenodd"><path d="M7.914 14.312C6.257 12.408 3 8.217 3 6.054c0-1.93.963-3.066 1.771-3.679 1.06-.804 2.32-1.09 3.075-1.09 1.8 0 4.846 1.005 4.846 4.77 0 2.163-3.165 6.35-4.778 8.257m3.6-12.887c-1-.713-2.371-1.14-3.669-1.14-.955 0-2.423.34-3.68 1.294C3.179 2.329 2 3.714 2 6.054c0 3.205 5.323 9.104 5.55 9.354l.374.413.37-.419c.22-.25 5.398-6.146 5.398-9.348 0-2.538-1.185-3.918-2.179-4.629" mask="url(#cxb)"></path><path d="M7.85 6.942c-.625 0-1.135-.51-1.135-1.135a1.137 1.137 0 0 1 2.271 0c0 .626-.51 1.135-1.135 1.135m0-3.27a2.138 2.138 0 0 0-2.136 2.135c0 1.177.958 2.135 2.136 2.135a2.138 2.138 0 0 0 2.136-2.135A2.138 2.138 0 0 0 7.85 3.67" mask="url(#cxb)"></path></g></svg>