<svg viewBox="0 0 16 20" id="pw-lock" width="100%" height="100%" xmlns="http://www.w3.org/2000/svg"><path d="M13.69 6.877h-1.04V5.093C12.651 2.305 10.575 0 7.998 0 5.422 0 3.345 2.268 3.345 5.093v1.784H2.307c-1 0-1.807.781-1.807 1.748v9.628C.5 19.219 1.308 20 2.307 20H13.69c1 0 1.808-.78 1.808-1.747V8.625c0-.967-.808-1.748-1.808-1.748zM4.652 5.093c0-2.082 1.5-3.792 3.345-3.792 1.846 0 3.346 1.71 3.346 3.792v1.784h-6.69V5.093zm9.536 13.16c0 .26-.192.446-.461.446H2.308c-.27 0-.462-.186-.462-.446V8.625c0-.26.192-.447.461-.447H13.69c.27 0 .462.186.462.447v9.628h.038z"></path><path d="M9.367 13.352c.263-.28.715-.803.715-1.432 0-1.082-.904-1.92-2.071-1.92-.565 0-1.093.21-1.507.594-.377.349-.603.838-.565 1.361 0 .699.414 1.187.716 1.432l-1.13 2.34a.387.387 0 0 0 .037.348.46.46 0 0 0 .34.175h4.18c.15 0 .264-.07.34-.175.075-.104.112-.244.037-.384l-1.092-2.339zm-2.938 2.2l1.13-2.41-.264-.174s-.603-.42-.64-1.048c0-.314.113-.628.376-.873.264-.244.603-.384.98-.384.753 0 1.318.56 1.356 1.257 0 .56-.64 1.048-.64 1.048l-.227.174 1.13 2.375h-3.2v.035z"></path></svg>