<?xml version="1.0" encoding="utf-8"?>
<!-- Generator: Adobe Illustrator 23.0.0, SVG Export Plug-In . SVG Version: 6.00 Build 0)  -->
<svg version="1.1" id="Слой_1" xmlns="http://www.w3.org/2000/svg" xmlns:xlink="http://www.w3.org/1999/xlink" x="0px" y="0px"
	 viewBox="0 0 18.5 17.7" style="enable-background:new 0 0 18.5 17.7;" xml:space="preserve">
<style type="text/css">
	.st0{fill:#4B7CA6;}
</style>
<title>twitt</title>
<g>
	<path class="st0" d="M9.3,5C7.1,5,5.2,6.8,5.2,9c0,2.3,1.8,4.1,4,4.2c0,0,0.1,0,0.1,0c2.3,0,4.1-1.9,4-4.2C13.3,6.8,11.6,5,9.3,5z
		 M9.3,11.7L9.3,11.7c-1.5,0-2.7-1.2-2.7-2.7s1.2-2.7,2.7-2.7c1.5,0,2.7,1.2,2.7,2.7C12,10.6,10.8,11.7,9.3,11.7z"/>
	<circle class="st0" cx="13.6" cy="4.8" r="1"/>
	<path class="st0" d="M13.7,0.5H4.9c-2.3,0-4.2,1.9-4.2,4.2v8.7c0,2.3,1.9,4.2,4.2,4.2h8.7c2.3,0,4.2-1.9,4.2-4.2V4.7
		C17.9,2.4,16,0.5,13.7,0.5z M16.4,13.5c0,1.5-1.2,2.7-2.7,2.7H4.9c-1.5,0-2.7-1.2-2.7-2.7V4.7C2.2,3.2,3.4,2,4.9,2h8.7
		c1.5,0,2.7,1.2,2.7,2.7V13.5z"/>
</g>
</svg>
