<?xml version="1.0" encoding="utf-8"?>
<!-- Generator: Adobe Illustrator 23.0.0, SVG Export Plug-In . SVG Version: 6.00 Build 0)  -->
<svg version="1.1" id="Слой_1" xmlns="http://www.w3.org/2000/svg" xmlns:xlink="http://www.w3.org/1999/xlink" x="0px" y="0px"
	 viewBox="0 0 21.9 17.5" style="enable-background:new 0 0 21.9 17.5;" xml:space="preserve">
<style type="text/css">
	.st0{fill:none;}
	.st1{fill:#F2F2F2;}
</style>
<rect x="-104.8" y="-31" class="st0" width="43.4" height="39"/>
<path class="st1" d="M10.5,0.4c-0.1-0.3-3.4,0.4-6,2.8C4.2,3.5,1.6,5.8,0.8,9.5c-0.2,1-0.4,2.5-0.4,3.3c0,0.1,0,0.2,0,0.3
	c0,2.2,1.8,4,4,4s4-1.8,4-4s-1.8-4-4-4C4,9.1,3.7,9.2,3.3,9.3C3.7,6.9,5.6,4.5,6,4C8.1,1.4,10.6,0.7,10.5,0.4z"/>
<path class="st1" d="M21.3,0.4c-0.1-0.3-3.4,0.4-6,2.8c-0.3,0.3-2.9,2.6-3.7,6.3c-0.2,1-0.4,2.5-0.4,3.3c0,0.1,0,0.2,0,0.3
	c0,2.2,1.8,4,4,4s4-1.8,4-4s-1.8-4-4-4c-0.4,0-0.7,0.1-1.1,0.2c0.3-2.3,2.3-4.7,2.7-5.2C18.9,1.4,21.4,0.7,21.3,0.4z"/>
</svg>
