<?xml version="1.0" encoding="utf-8"?>
<!-- Generator: Adobe Illustrator 23.0.0, SVG Export Plug-In . SVG Version: 6.00 Build 0)  -->
<svg version="1.1" id="Слой_1" xmlns="http://www.w3.org/2000/svg" xmlns:xlink="http://www.w3.org/1999/xlink" x="0px" y="0px"
	 viewBox="0 0 21.9 17.5" style="enable-background:new 0 0 21.9 17.5;" xml:space="preserve">
<style type="text/css">
	.st0{fill:none;}
	.st1{fill:#F2F2F2;}
</style>
<rect x="-104.8" y="-31" class="st0" width="43.4" height="39"/>
<path class="st1" d="M11.2,17c0.1,0.3,3.4-0.4,6-2.8c0.3-0.3,2.9-2.6,3.7-6.3c0.2-1,0.4-2.5,0.4-3.3c0-0.1,0-0.2,0-0.3
	c0-2.2-1.8-4-4-4s-4,1.8-4,4s1.8,4,4,4c0.4,0,0.7-0.1,1.1-0.2c-0.4,2.4-2.3,4.8-2.7,5.3C13.6,16,11.1,16.7,11.2,17z"/>
<path class="st1" d="M0.4,17c0.1,0.3,3.4-0.4,6-2.8c0.3-0.3,2.9-2.6,3.7-6.3c0.2-1,0.4-2.5,0.4-3.3c0-0.1,0-0.2,0-0.3
	c0-2.2-1.8-4-4-4s-4,1.8-4,4s1.8,4,4,4c0.4,0,0.7-0.1,1.1-0.2c-0.3,2.3-2.3,4.7-2.7,5.2C2.8,16,0.3,16.7,0.4,17z"/>
</svg>
