<svg id="Слой_1" data-name="Слой 1" xmlns="http://www.w3.org/2000/svg" viewBox="0 0 73.59 51"><defs><style>.cls-1{fill:#0db7a3;}</style></defs><title>letter</title><path class="cls-1" d="M74.3,3.18A2.45,2.45,0,0,0,71.79.46H3.9l-.19,0-.3,0A3,3,0,0,0,.72,3.41V47.58A4,4,0,0,0,4.9,51.46H70.5a3.71,3.71,0,0,0,3.8-3.88V3.51C74.3,3.4,74.31,3.29,74.3,3.18ZM62.57,5.73,40.12,22.9a3.73,3.73,0,0,1-4.33-.21l-24.9-17Zm6.18,40.45H6.17V9.1a2.62,2.62,0,0,1,.06-.57L35.4,29.38a3.73,3.73,0,0,0,4.33.22l29-21.06a3.44,3.44,0,0,1,0,.45Z" transform="translate(-0.72 -0.46)"/></svg>