<svg id="Слой_1" data-name="Слой 1" xmlns="http://www.w3.org/2000/svg" viewBox="0 0 28.39 24.13"><defs><style>.cls-1{fill:#6b6b6b;}</style></defs><title>like-dark</title><path class="cls-1" d="M14.08,24.13a115.16,115.16,0,0,1-11.36-10,7.46,7.46,0,0,1-1.35-1.9C-.12,9.28-.1,4.78,2.85,2.18a8,8,0,0,1,5-1.8A8.17,8.17,0,0,1,9.2.49a7.75,7.75,0,0,1,5.07,3.07l.32.44.32-.44A7.7,7.7,0,0,1,20,.5,7.37,7.37,0,0,1,21.29.38a8,8,0,0,1,5.05,1.81c2.94,2.59,3,7.1,1.48,10a6.91,6.91,0,0,1-1.35,1.9A114,114,0,0,1,15.11,24.16l-.51.36Zm-6.29-22A6,6,0,0,0,4,3.47c-2.51,2.19-2.15,6-1.1,8A6,6,0,0,0,4,12.89a116.75,116.75,0,0,0,10.36,9.27l.25.2.25-.2a117,117,0,0,0,10.38-9.27,6,6,0,0,0,1.07-1.45c1.05-2,1.41-5.78-1.09-8a6.35,6.35,0,0,0-3.93-1.37,6.29,6.29,0,0,0-5.59,3.45,1.18,1.18,0,0,1-1.06.63,1.26,1.26,0,0,1-1.11-.64A6.16,6.16,0,0,0,9,2.19a8.74,8.74,0,0,0-1-.07Z" transform="translate(-0.4 -0.38)"/></svg>