<svg id="Слой_1" data-name="Слой 1" xmlns="http://www.w3.org/2000/svg" viewBox="0 0 29.18 25.01"><defs><style>.cls-1{fill:#c8c8c8;}</style></defs><title>like</title><path class="cls-1" d="M15,25.34l-.75-.56A115.27,115.27,0,0,1,2.85,14.7a7.64,7.64,0,0,1-1.43-2C-.13,9.66-.1,4.94,3,2.21A8.35,8.35,0,0,1,9.68.43,8.07,8.07,0,0,1,15,3.65,8.07,8.07,0,0,1,20.32.43,8.35,8.35,0,0,1,27,2.21c3.11,2.73,3.14,7.45,1.59,10.51a7.34,7.34,0,0,1-1.43,2,114.22,114.22,0,0,1-11.4,10.09ZM8.34,2.85A5.57,5.57,0,0,0,4.67,4.11c-2.29,2-2,5.57-1,7.47a5.76,5.76,0,0,0,1,1.36A116.75,116.75,0,0,0,15,22.18a116.75,116.75,0,0,0,10.35-9.24,5.76,5.76,0,0,0,1-1.36c1-1.9,1.29-5.47-1-7.47a5.94,5.94,0,0,0-4.64-1.19,5.76,5.76,0,0,0-4.26,3.15A1.61,1.61,0,0,1,15,6.92h0a1.62,1.62,0,0,1-1.43-.85A5.76,5.76,0,0,0,9.31,2.92,6.58,6.58,0,0,0,8.34,2.85Zm5.87,2h0Z" transform="translate(-0.41 -0.33)"/></svg>