<?xml version="1.0" encoding="utf-8"?>
<!-- Generator: Adobe Illustrator 23.0.0, SVG Export Plug-In . SVG Version: 6.00 Build 0)  -->
<svg version="1.1" id="pw-heart" xmlns="http://www.w3.org/2000/svg" xmlns:xlink="http://www.w3.org/1999/xlink" x="0px" y="0px"
	 viewBox="0 0 500 444" style="enable-background:new 0 0 500 444;" xml:space="preserve">
<style type="text/css">
	.st0{fill-rule:evenodd;clip-rule:evenodd;fill:#E52676;}
</style>
<path class="st0" d="M32.7,154.7c-0.5,66.8,52.7,109.3,99.6,146.8c9.3,7.4,18.3,14.7,26.6,21.8l2.5,2.2
	c29.3,25.2,57.1,49.2,87.1,67.7c4.4-3.5,10.4-8.1,18.5-14.5c23.4-18,46.6-36.5,69.4-55.3c7.8-6.5,16.4-13.3,25.5-20.3
	c47.2-36.7,105.9-82.3,105.4-149.3c-0.5-62-28.7-104.7-75.5-114.2c-41.1-8.3-98.2,13-126.9,79.3c3.6,8.3-0.2,17.9-8.5,21.5
	c-8.3,3.6-17.9-0.2-21.5-8.5c-1.8-4.1-1.8-8.8,0-13c-29.5-67.7-84.4-89.5-125.7-81.1C72.6,45.2,33.3,79.8,32.7,154.7L32.7,154.7z
	 M266,417.7L266,417.7L266,417.7z M250.3,429.5c-2.8,0-5.6-0.7-8.1-2.1c-36.6-20.7-68.4-48.1-102.2-77.2l-2.5-2.2
	c-8-6.9-16.7-13.8-25.7-21C61.8,286.9-0.6,237,0,154.4C0.7,60.1,53.5,15.7,102.7,5.7c47.7-9.8,108.4,9.7,147.4,71.8
	C284.7,24.2,342.3-4,398.4,7.4c48.8,9.9,101,53.5,101.7,146.1c0.5,83.1-68,136.4-118.1,175.3c-8.8,6.9-17.2,13.3-24.6,19.6
	c-24.3,20.3-50.9,40.9-70.3,56.1c-10.5,8.1-21.3,16.5-24.3,19.2C259.7,427.4,255.1,429.5,250.3,429.5L250.3,429.5z"/>
</svg>
