<svg id="Слой_1" data-name="Слой 1" xmlns="http://www.w3.org/2000/svg" viewBox="0 0 29.18 25.03"><defs><style>.cls-1{fill:#f24960;}</style></defs><title>like-active</title><path class="cls-1" d="M14.59,25l-.75-.56A114.88,114.88,0,0,1,2.44,14.37a7.86,7.86,0,0,1-1.43-2C-.54,9.33-.51,4.61,2.59,1.88A8.34,8.34,0,0,1,9.27.1a8.08,8.08,0,0,1,5.32,3.22A8.08,8.08,0,0,1,19.91.1a8.34,8.34,0,0,1,6.68,1.78c3.11,2.73,3.14,7.45,1.59,10.51a7.24,7.24,0,0,1-1.43,2,115,115,0,0,1-11.4,10.09Z" transform="translate(0 0.02)"/></svg>