<?xml version="1.0" encoding="utf-8"?>
<!-- Generator: Adobe Illustrator 23.0.0, SVG Export Plug-In . SVG Version: 6.00 Build 0)  -->
<svg version="1.1" id="Слой_1" xmlns="http://www.w3.org/2000/svg" xmlns:xlink="http://www.w3.org/1999/xlink" x="0px" y="0px"
	 viewBox="0 0 87.9 37.6" style="enable-background:new 0 0 87.9 37.6;" xml:space="preserve">
<g>
	<polygon points="0.6,0.6 0.6,6.1 1.6,6.1 1.6,2.2 1.6,0.6 	"/>
	<path d="M5.5,6.1V2.6c0-1.3-0.5-2.2-1.9-2.2c-1.1,0-1.8,0.8-2,1.8c0.3-0.9,0.9-1.2,1.6-1.2c0.8,0,1.3,0.5,1.3,1.6v3.5H5.5z"/>
	<path d="M9.9,6.3c1.3,0,2.1-0.6,2.5-1.9l-0.1,0c-0.4,1-1.2,1.4-2,1.4c-1.4,0-2.1-1.1-2.1-2.5c0-0.1,0-0.2,0-0.4h4.2
		c-0.1-1.4-1.1-2.3-2.5-2.3c-1.5,0-2.9,1.2-2.9,2.9C6.9,5.2,8.1,6.3,9.9,6.3z M9.8,0.8c0.8,0,1.2,0.6,1.3,1.6H8.2
		C8.3,1.6,8.8,0.8,9.8,0.8z"/>
	<polygon points="18.6,6.1 19.2,6.1 21.2,0.6 20.7,0.6 19.2,4.7 17.7,0.6 17.1,0.6 15.6,4.7 14.2,0.6 13,0.6 15,6.1 15.6,6.1 
		17.1,2 	"/>
	<path d="M27.5,2.8l-0.6-0.2c-0.8-0.2-1.1-0.5-1.1-1c0-0.5,0.5-0.9,1.2-0.9c1.3,0,0.7,1.1,1.5,1.1c0.3,0,0.5-0.2,0.5-0.5
		c0-0.6-0.8-0.9-1.9-0.9C25.8,0.4,25,1.1,25,2c0,0.8,0.5,1.3,1.5,1.6l0.6,0.2c0.7,0.2,1.3,0.5,1.3,1.1c0,0.7-0.6,1-1.3,1
		c-0.7,0-0.9-0.3-1-0.7c-0.1-0.3-0.1-0.6-0.6-0.6c-0.3,0-0.6,0.2-0.6,0.5c0,0.7,1.1,1.2,2.1,1.2c1.1,0,2.2-0.6,2.2-1.7
		C29.2,3.6,28.6,3.1,27.5,2.8z"/>
	<path d="M33.2,6.3c1.3,0,2.1-0.6,2.5-1.9l-0.1,0c-0.4,1-1.2,1.4-2,1.4c-1.4,0-2.1-1.1-2.1-2.5c0-0.1,0-0.2,0-0.4h4.2
		c-0.1-1.4-1.1-2.3-2.5-2.3c-1.5,0-2.9,1.2-2.9,2.9C30.2,5.2,31.4,6.3,33.2,6.3z M33.1,0.8c0.8,0,1.2,0.6,1.3,1.6h-2.9
		C31.6,1.6,32.1,0.8,33.1,0.8z"/>
	<path d="M38.2,6.3c0.7,0,1.3-0.4,1.6-1c-0.3,0.4-0.8,0.5-1.2,0.5c-0.6,0-1-0.3-1-0.9c0-0.7,0.5-1.4,2.2-1.4l0,1.6
		c0,0.9,0.5,1.1,1,1.1c0.4,0,0.8-0.1,1.1-0.6l-0.1-0.1c-0.2,0.2-0.4,0.3-0.6,0.3c-0.3,0-0.4-0.1-0.4-0.7l0-2.6c0-1.6-0.8-2.1-2-2.1
		c-1,0-1.9,0.6-1.9,1.3c0,0.4,0.2,0.6,0.5,0.6c0.3,0,0.6-0.3,0.5-0.7c-0.1-0.6,0.1-0.9,0.8-0.9c0.6,0,1,0.4,1,1.6l0,0.9
		c-1.8,0-3.4,0.4-3.4,1.6C36.5,5.7,37.2,6.3,38.2,6.3z"/>
	<path d="M45.1,2.8l-0.6-0.2c-0.8-0.2-1.1-0.5-1.1-1c0-0.5,0.5-0.9,1.2-0.9c1.3,0,0.7,1.1,1.5,1.1c0.3,0,0.5-0.2,0.5-0.5
		c0-0.6-0.8-0.9-1.9-0.9c-1.3,0-2.1,0.7-2.1,1.6c0,0.8,0.5,1.3,1.5,1.6l0.6,0.2C45.5,4,46,4.3,46,4.9c0,0.7-0.6,1-1.3,1
		c-0.7,0-0.9-0.3-1-0.7c-0.1-0.3-0.1-0.6-0.6-0.6c-0.4,0-0.6,0.2-0.6,0.5c0,0.7,1.1,1.2,2.1,1.2c1.1,0,2.2-0.6,2.2-1.7
		C46.8,3.6,46.2,3.1,45.1,2.8z"/>
	<path d="M53.8,3.4c0-1.7-1.4-2.9-3-2.9c-1.6,0-3,1.2-3,2.9c0,1.7,1.4,2.9,3,2.9C52.5,6.3,53.8,5,53.8,3.4z M50.8,5.9
		c-1.4,0-1.8-1.5-1.8-2.6c0-1.1,0.4-2.6,1.8-2.6c1.4,0,1.8,1.5,1.8,2.6C52.7,4.4,52.3,5.9,50.8,5.9z"/>
	<polygon points="56.4,2.2 56.4,0.6 55.4,0.6 55.4,6.1 56.4,6.1 	"/>
	<path d="M58,1.1c0.8,0,1.3,0.5,1.3,1.6v3.5h1V2.6c0-1.3-0.5-2.2-1.9-2.2c-1.1,0-1.8,0.8-2,1.8C56.7,1.4,57.4,1.1,58,1.1z"/>
	<polygon points="66.4,2.2 66.4,0.6 65.4,0.6 65.4,6.1 66.4,6.1 	"/>
	<path d="M68,1.1c0.8,0,1.3,0.5,1.3,1.6v3.5h1V2.6c0-1.3-0.5-2.2-1.9-2.2c-1.1,0-1.8,0.8-2,1.8C66.7,1.4,67.3,1.1,68,1.1z"/>
	<path d="M74.7,6.3c1.6,0,3-1.2,3-2.9c0-1.7-1.4-2.9-3-2.9c-1.6,0-3,1.2-3,2.9C71.7,5,73.1,6.3,74.7,6.3z M74.7,0.8
		c1.4,0,1.8,1.5,1.8,2.6c0,1.1-0.4,2.6-1.8,2.6c-1.4,0-1.8-1.5-1.8-2.6C72.9,2.2,73.3,0.8,74.7,0.8z"/>
	<polygon points="86.1,0.6 84.7,4.7 83.2,0.6 82.6,0.6 81.1,4.7 79.6,0.6 78.5,0.6 80.5,6.1 81,6.1 82.6,2 84.1,6.1 84.6,6.1 
		86.6,0.6 	"/>
	<path d="M10.2,28.6c2.1-0.7,3.6-1.9,3.6-3.6c0-1.5-1.6-2.5-3.5-2.5c-1.6,0-3.6,0.7-4.3,3l0.2,0.1c0.5-1.4,2-2.3,3.3-2.3
		c1.4,0,2.4,0.8,2.4,2c0,1.4-1.5,3.5-4,4.3v0.2c0.4-0.1,0.8-0.2,1.3-0.2c1.9,0,3.5,1.2,3.5,3.4c0,1.9-1.2,3.3-3.2,3.3
		c-2.6,0-1.8-2.8-3.4-2.8c-0.6,0-0.9,0.3-0.9,0.8c0,1.4,2.3,2.6,4.3,2.6c3.2,0,5.2-2,5.2-4.4C14.6,30.7,13.2,28.8,10.2,28.6z"/>
	<path d="M22.3,22.5c-3.2,0-5.5,2.7-5.5,7.3c0,4.6,2.2,7.2,5.5,7.2c3.1,0,5.5-2.6,5.5-7.2S25.9,22.5,22.3,22.5z M22.3,36.4
		c-1.7,0-3.5-1.5-3.5-6.6s1.8-6.7,3.5-6.7s3.5,1.6,3.5,6.7S24,36.4,22.3,36.4z"/>
	<path d="M42.5,28.7c-2,0-3.2,1.6-3.2,4.1c0,2.5,1.3,4.2,3.2,4.2c1.9,0,3.2-1.7,3.2-4.2C45.7,30.3,44.4,28.7,42.5,28.7z M42.5,36.5
		c-1.3,0-1.7-1.4-1.7-3.6c0-2.2,0.3-3.6,1.7-3.6c1.3,0,1.7,1.4,1.7,3.6C44.1,35,43.8,36.5,42.5,36.5z"/>
	<path d="M36.1,25.9c0-2.5-1.3-4.1-3.2-4.1c-2,0-3.2,1.6-3.2,4.1c0,2.5,1.3,4.2,3.2,4.2C34.8,30.1,36.1,28.5,36.1,25.9z M31.2,25.9
		c0-2.2,0.3-3.6,1.7-3.6s1.7,1.4,1.7,3.6c0,2.2-0.3,3.6-1.7,3.6S31.2,28.1,31.2,25.9z"/>
	<polygon points="41.9,22.3 32.2,36.8 33.5,36.8 43.1,22.3 	"/>
	<path d="M57.5,27.1c-2.8,0-5.1,2.1-5.1,5c0,2.9,2.4,5,5.1,5s5.1-2.1,5.1-5C62.7,29.2,60.3,27.1,57.5,27.1z M57.5,36.4
		c-2.4,0-3.1-2.5-3.1-4.4c0-1.9,0.7-4.4,3.1-4.4c2.4,0,3.1,2.5,3.1,4.4C60.6,33.9,60,36.4,57.5,36.4z"/>
	<path d="M68.1,22.5c0.9,0,1.1,0.9,2.1,0.9c0.5,0,0.8-0.3,0.8-0.9c0-0.7-0.7-1-1.6-1c-2.5,0-3.8,2.2-3.9,5.8h-1.9v1h1.9v8.5h1.8
		v-8.5h3.1v-1h-3.2C66.5,23.8,67.2,22.5,68.1,22.5z"/>
	<path d="M37.2,15.7c0.5,0,0.9-0.4,1-0.9c-0.2,0.4-0.4,0.6-0.8,0.6c-0.4,0-0.6-0.3-0.6-0.9v-1.8h-0.5v1.7
		C36.2,15.3,36.6,15.7,37.2,15.7z"/>
	<polygon points="38.7,15.6 38.7,12.7 38.2,12.7 38.2,14.8 38.2,15.6 	"/>
	<polygon points="39.8,12.7 39.8,17 40.3,17 40.3,15.2 40.3,13.1 40.3,12.7 	"/>
	<path d="M42,14.2c0,0.8-0.4,1.2-1.1,1.2c-0.2,0-0.4-0.1-0.6-0.2c0.2,0.2,0.4,0.5,0.9,0.5c0.9,0,1.4-0.6,1.4-1.5
		c0-0.9-0.6-1.5-1.4-1.5c-0.4,0-0.7,0.3-0.9,0.5c0.2-0.2,0.4-0.2,0.6-0.2C41.6,12.9,42,13.4,42,14.2z"/>
	<path d="M46.1,15.4c-0.2,0-0.5-0.1-0.5-0.6V13h1.1v-0.3h-1.1v-0.9l-0.5,0.3v0.6h-0.6V13h0.6v1.9c0,0.6,0.3,0.8,0.8,0.8
		c0.4,0,0.7-0.2,0.9-0.6l-0.1,0C46.5,15.3,46.4,15.4,46.1,15.4z"/>
	<path d="M48.6,12.7c-0.8,0-1.5,0.6-1.5,1.5c0,0.9,0.7,1.5,1.5,1.5c0.8,0,1.5-0.6,1.5-1.5C50.2,13.3,49.5,12.7,48.6,12.7z
		 M48.6,15.5c-0.7,0-0.9-0.8-0.9-1.3c0-0.6,0.2-1.3,0.9-1.3c0.7,0,0.9,0.8,0.9,1.3C49.6,14.7,49.4,15.5,48.6,15.5z"/>
	<path d="M81,21.6L79.8,22v-1.2h-0.6V22L78,21.6l-0.1,0.2c-0.3-0.2-0.7-0.3-1.2-0.3c-2.5,0-3.8,2.2-3.9,5.8H71v1h1.9v8.5h1.8v-8.5
		h3.1v-1h-3.2c-0.8-3.5-0.1-4.8,0.8-4.8c0.9,0,1.1,0.9,2.1,0.9c0.5,0,0.8-0.3,0.8-0.9c0-0.1,0-0.2,0-0.2l0.7,0.2l-0.8,1l0.5,0.3
		l0.8-1l0.8,1.1l0.5-0.3l-0.8-1l1.2-0.4L81,21.6z"/>
</g>
</svg>
