<?xml version="1.0" encoding="utf-8"?>
<!-- Generator: Adobe Illustrator 23.0.0, SVG Export Plug-In . SVG Version: 6.00 Build 0)  -->
<svg version="1.1" id="Слой_1" xmlns="http://www.w3.org/2000/svg" xmlns:xlink="http://www.w3.org/1999/xlink" x="0px" y="0px"
	 viewBox="0 0 13.4 16.4" style="enable-background:new 0 0 13.4 16.4;" xml:space="preserve">
<style type="text/css">
	.st0{fill-rule:evenodd;clip-rule:evenodd;fill:#BD081C;}
</style>
<title>twitt</title>
<path class="st0" d="M3.8,16.1c0.4-0.7,1-1.8,1.2-2.6l0.6-2.4c0.3,0.6,1.3,1.1,2.3,1.1c3,0,5.2-2.8,5.2-6.2c0-3.3-2.7-5.8-6.2-5.8
	c-4.3,0-6.6,2.9-6.6,6.1c0,1.5,0.8,3.3,2,3.9c0.2,0.1,0.3,0.1,0.3-0.1c0-0.1,0.2-0.8,0.3-1.1c0-0.1,0-0.2-0.1-0.3
	C2.5,8.1,2.2,7.2,2.2,6.3C2.2,4.1,3.8,2,6.7,2c2.5,0,4.2,1.7,4.2,4.1c0,2.7-1.4,4.6-3.1,4.6c-1,0-1.7-0.8-1.5-1.8
	c0.3-1.2,0.8-2.5,0.8-3.3c0-0.8-0.4-1.4-1.3-1.4c-1,0-1.8,1-1.8,2.4C4,7.4,4.3,8,4.3,8s-1,4.2-1.2,5c-0.2,0.9-0.1,2.1,0,2.9
	c0,0,0,0.3,0.2,0.4C3.5,16.2,3.6,16.2,3.8,16.1"/>
</svg>
