<svg id="Слой_1" data-name="Слой 1" xmlns="http://www.w3.org/2000/svg" viewBox="0 0 25.58 30.18"><defs><style>.cls-1{fill:#253b80;}.cls-2{fill:#179bd7;}.cls-3{fill:#222d65;}</style></defs><title>rr</title><path class="cls-1" d="M7.27,29.45l.52-3.32-1.17,0H1.06L4.93,1.59a.31.31,0,0,1,.31-.27h9.38c3.12,0,5.26.65,6.39,1.93a4.44,4.44,0,0,1,1,1.92,7,7,0,0,1,0,2.64l0,.08v.67l.53.3a4,4,0,0,1,1.07.81,3.8,3.8,0,0,1,.86,1.94,8.3,8.3,0,0,1-.12,2.81,9.76,9.76,0,0,1-1.16,3.19,6.56,6.56,0,0,1-1.82,2,7.49,7.49,0,0,1-2.46,1.11,12.52,12.52,0,0,1-3.07.35h-.73a2.22,2.22,0,0,0-1.43.53A2.18,2.18,0,0,0,13,22.92l-.06.3L12,29.08l0,.21a.18.18,0,0,1-.06.13.17.17,0,0,1-.1,0Z" transform="translate(0 -0.3)"/><path class="cls-2" d="M23.05,8c0,.18-.06.36-.1.55-1.23,6.35-5.47,8.54-10.87,8.54H9.33A1.33,1.33,0,0,0,8,18.19L6.6,27.13l-.4,2.53a.7.7,0,0,0,.58.81h5a1.17,1.17,0,0,0,1.16-1l.05-.25.92-5.83.06-.32a1.17,1.17,0,0,1,1.16-1h.73c4.73,0,8.43-1.92,9.51-7.47.45-2.32.22-4.26-1-5.62A4.58,4.58,0,0,0,23.05,8Z" transform="translate(0 -0.3)"/><path class="cls-3" d="M21.75,7.45a11.62,11.62,0,0,0-1.2-.27A15.07,15.07,0,0,0,18.13,7H10.77A1.17,1.17,0,0,0,9.61,8L8.05,17.9l0,.29a1.33,1.33,0,0,1,1.32-1.13h2.75c5.4,0,9.64-2.19,10.87-8.54,0-.19.07-.37.1-.55a6.49,6.49,0,0,0-1-.43Z" transform="translate(0 -0.3)"/><path class="cls-1" d="M9.61,8a1.17,1.17,0,0,1,1.16-1h7.36a15.23,15.23,0,0,1,2.42.17A9.39,9.39,0,0,1,22,7.54a5.9,5.9,0,0,1,1,.43c.37-2.35,0-3.95-1.27-5.4S17.85.3,14.62.3H5.24A1.33,1.33,0,0,0,3.92,1.43L0,26.2a.8.8,0,0,0,.67.92H6.6L8.05,17.9Z" transform="translate(0 -0.3)"/></svg>