<?xml version="1.0" encoding="utf-8"?>
<!-- Generator: Adobe Illustrator 23.0.0, SVG Export Plug-In . SVG Version: 6.00 Build 0)  -->
<svg version="1.1" id="Слой_1" xmlns="http://www.w3.org/2000/svg" xmlns:xlink="http://www.w3.org/1999/xlink" x="0px" y="0px"
	 viewBox="0 0 20 20" style="enable-background:new 0 0 20 20;" xml:space="preserve">
<style type="text/css">
	.st0{fill:#00B39E;}
</style>
<title>bag2</title>
<path class="st0" d="M19.8,18.6l-6.3-6.3c1.1-1.3,1.7-3,1.7-4.8c0-4.2-3.4-7.6-7.6-7.6C3.4,0,0,3.4,0,7.6s3.4,7.6,7.6,7.6
	c1.8,0,3.5-0.6,4.8-1.7l6.3,6.3c0.1,0.1,0.3,0.2,0.6,0.2c0.2,0,0.4-0.1,0.5-0.2C20.1,19.4,20.1,18.9,19.8,18.6z M1.4,7.6
	c0-3.4,2.8-6.2,6.2-6.2s6.2,2.8,6.2,6.2s-2.8,6.2-6.2,6.2S1.4,11,1.4,7.6L1.4,7.6z"/>
</svg>
