<svg id="Слой_1" data-name="Слой 1" xmlns="http://www.w3.org/2000/svg" viewBox="0 0 47.61 37.85"><title>wish2</title><path d="M25.05,38.43l-.89-.52c-2.05-1.26-4.09-2.62-6.05-4C11.62,29.23,7.44,25.73,5.66,23.47c-2.05-2.61-4-5.08-4.36-8.88A12.59,12.59,0,0,1,3.63,5.43C6.42,1.75,11.23-.14,15.3.82c2.25.54,3.83,1.9,6.71,4.38,1,.9,2,1.87,3,2.88A41,41,0,0,1,28,5.2C30.91,2.72,32.5,1.36,34.75.82c4.07-1,8.87.94,11.66,4.61a12.54,12.54,0,0,1,2.33,9.16c-.38,3.8-2.31,6.27-4.36,8.88-1.78,2.26-6,5.76-12.45,10.41-2,1.41-4,2.77-6.07,4ZM13.12,3.61A9.27,9.27,0,0,0,6,7.27a9.74,9.74,0,0,0-1.72,7c.28,2.78,1.6,4.59,3.73,7.3,1.57,2,5.66,5.41,11.83,9.82,1.67,1.2,3.39,2.36,5.14,3.46,1.76-1.11,3.48-2.27,5.14-3.46C36.33,27,40.42,23.6,42,21.59c2.14-2.71,3.46-4.52,3.73-7.3a9.74,9.74,0,0,0-1.72-7c-2.06-2.71-5.66-4.17-8.56-3.49C33.92,4.14,32.7,5.19,30,7.49a36.83,36.83,0,0,0-3.85,3.85L25,12.67l-1.15-1.33A36.64,36.64,0,0,0,20,7.5c-2.68-2.31-3.9-3.36-5.43-3.72A6.65,6.65,0,0,0,13.12,3.61Z" transform="translate(-1.22 -0.58)"/></svg>